<?xml version="1.0" encoding="UTF-8"?>
<svg id="Layer_1" data-name="Layer 1" xmlns="http://www.w3.org/2000/svg" version="1.1" viewBox="0 0 946.93 873.79">
  <defs>
    <style>
      .cls-1 {
        fill: #3f4da1;
        stroke-width: 0px;
      }
    </style>
  </defs>
  <path class="cls-1" d="M773.25,150.75c6.42.96,11.85,1.59,17.2,2.63,6.02,1.16,9.48,4.15,12.81,9.99-.59,4.16-6.63,8.98-11.28,10.84-9.19,3.68-19.46,4.65-28.7,8.25-34.68,13.53-69.5,26.81-103.59,41.73-93.58,40.95-186.83,82.65-280.19,124.11-36.39,16.16-72.82,32.23-109.01,48.83-12.52,5.74-24.9,12.13-36.39,19.66-19.5,12.78-30.8,31.59-30.89,54.89-.38,95.28-.03,190.57.27,285.85.06,20.87,8.82,37.52,26.94,50.48,0-94.13.19-187.01-.14-279.89-.08-22.99,5.09-44.34,14.1-65.33,13.48-31.37,38.35-50.02,68.04-63.69,93.41-42.99,186.73-86.21,280.37-128.69,56.19-25.5,112.87-49.92,169.45-74.56,14.43-6.28,29.11-12.07,45.55-10.41,30.29,3.05,53.02,26.25,54.06,56.81.7,20.57.59,41.21-.17,61.78-.37,9.98,4.06,14.19,12.83,15.62,7.61,1.24,15.27,2.21,22.9,3.37,28.61,4.36,46.53,22.07,49.03,50.79,1.19,13.63-.02,27.61-1.56,41.28-.71,6.31-4.66,12.31-7.48,18.29-2.58,5.47-4.88,11.31-8.6,15.95-5.71,7.15-11.52,15.05-19.09,19.73-14.85,9.18-30.94,16.36-47.62,24.93,0,19.19.86,40.11-.27,60.92-.95,17.47-7.64,33.38-18.8,47.23-6.21,7.7-12.93,15.22-17.72,23.77-9.26,16.54-24.65,25.11-40.53,32.78-87.63,42.31-175.51,84.09-263.14,126.39-46.57,22.48-92.68,45.92-139.25,68.4-21.41,10.34-43.49,19.56-67.78,20.29-23.02.69-42.95-7.26-58.95-24.02-5.77-6.04-11.87-9.94-20.62-10.88-15.84-1.7-27.32-11.75-38.52-22.23-3.68-3.45-8.85-6.47-13.73-7.27-18.36-3.03-32.88-11.83-44.98-25.74-2.95-3.4-8.03-6.09-12.51-6.81-16.48-2.65-30.48-9.33-42.22-21.35-4.11-4.21-9.29-8.55-14.75-10.08C21.32,732.22-.24,692.88,0,646.42c.46-87.57.62-175.13,1.01-262.7.1-24.09-1.58-48.45,1.32-72.22,4.46-36.57,24.23-64.85,56.48-82.99,27.71-15.58,56.11-29.97,84.5-44.31,60.47-30.55,120.84-61.31,181.78-90.9,58.08-28.2,116.66-55.37,175.34-82.28,31.69-14.53,63.94-14.81,96.11-.09,15.1,6.91,23.51,17.26,22.2,34.48-.36,4.68.37,9.45.71,16.53,7.23-3.14,12.93-5.57,18.59-8.08,9.66-4.28,19.01-9.56,29.04-12.64,10.07-3.09,12.82-.32,12.95,10.16.18,14.09.04,28.18.04,40.46,10.96-1.9,23.32-4.95,35.84-5.76,4.58-.29,12.83,4.1,13.49,7.51,1.06,5.45-2.56,11.96-4.82,17.79-.38.97-3.86.86-5.92,1.03-7.14.58-14.98-.66-21.31,1.89-29.43,11.84-58.53,24.54-87.6,37.28-50.53,22.15-101.03,44.37-151.39,66.91-76.36,34.17-152.71,68.39-228.82,103.11-33.28,15.18-65.93,31.76-98.97,47.47-25.53,12.14-39.89,30.89-39.88,60.32.03,70.82-.87,141.64-1.05,212.46-.05,21.23.58,42.49,1.74,63.68,1.07,19.52,12.68,32.09,28.5,40.79,0-94.18,1.34-188.09-.47-281.95-1.19-61.83,26.79-89.52,75.87-111.72,98.89-44.73,198.45-87.97,297.82-131.63,64.94-28.53,130.04-56.71,195.06-85.07,5.01-2.18,10.35-3.93,14.82-6.94,19-12.78,38.76-7.54,58.49-3.01,13.4,3.08,11.55,14.26,11.77,24.74ZM649.89,276.89c-4.45,1.44-6.93,2.01-9.23,3.01-36.49,15.94-72.87,32.1-109.46,47.8-9.8,4.21-15.32,9.46-11.84,21.03,1.25,4.15.42,8.96.39,13.46-.38,63.97-.89,127.94-1.16,191.92-.27,64.69-.31,129.39-.44,194.08,0,2.37.23,4.73.39,7.95,5.6-2.86,10.09-5.22,14.65-7.47,36.85-18.15,73.79-36.14,110.45-54.67,3.02-1.53,6.01-6.64,6.02-10.1.3-113.63.23-227.26.22-340.89,0-21.51,0-43.02,0-66.13ZM831.89,508.52c-1.51.68-3.45,1.62-5.44,2.45-19.19,8.08-38.21,16.59-57.63,24.06-14.72,5.66-28.97,5.69-39.84-8.6-1.31-1.72-3.44-2.91-5.36-4.08-13.94-8.55-21.35-21.91-23.64-37.15-6.81-45.37,17.18-91.41,57.23-109.26,22.58-10.06,45.32-19.8,67.74-30.2,3.31-1.53,7.4-5.84,7.55-9.03,1.25-27.31,2.07-54.66,2.24-82,.2-30.78-26.56-48.89-55.08-36.96-34.05,14.23-67.72,29.38-101.4,44.48-2.4,1.08-5,5.1-4.96,7.72.75,53.1,2.51,106.19,2.76,159.29.27,57.93-.84,115.87-1.22,173.8-.17,25.32-.03,50.64-.03,78.33,39.71-20.05,78.83-37.88,115.91-59.27,21.46-12.37,37.06-33.02,40.66-58.57,2.52-17.89.49-36.43.49-55.01ZM493.27,563.06l.79-44.36c-.89-52.76.5-105.56,1.02-158.34.05-5.06,0-10.12,0-16.26-2.76.86-3.68,1.04-4.52,1.42-55.23,25.03-110.3,50.43-165.74,75.01-42.55,18.87-64.71,51.21-66.04,97.35-1.1,38.28-.97,76.59-1.23,114.89l1.38,34.41c-.6,40.55-2.66,81.17-1,121.63,1.02,25.03,14.7,48.21,40.74,53.43,16.5,3.31,33.07,2.74,48.23-4.31,46.85-21.77,93.32-44.34,139.84-66.82,2.93-1.41,6.93-4.58,7.07-7.11.71-13.25.33-26.55.33-41.1l-.88-159.85ZM99.55,266.06c2.92-3.42,4.88-6.4,7.48-8.65,13.96-12.06,31.55-15.6,48.68-19.85,7.26-1.8,11.39-4.82,13.59-12.42,1.65-5.7,5.18-12.83,9.95-15.31,21.34-11.08,43.46-20.65,65.23-30.88,29.34-13.79,58.48-28.02,87.98-41.45,29.47-13.43,59.36-25.92,88.91-39.17,28.98-13,57.76-26.46,86.65-39.67,19.68-9,39.39-17.92,61.19-27.83-22.75-4.21-41.53.23-59.61,8.57-67.7,31.21-135.66,61.88-202.91,94.04-41.09,19.65-81,41.77-121.55,62.57-40.54,20.8-81.51,40.81-121.74,62.19-28.41,15.09-38.68,55.93-37.14,81.03.63,10.23,3,20.39,3.19,30.6.94,50.51,1.64,101.02,1.99,151.54.34,48.28-.05,96.57.29,144.85.15,21.08,12.54,38.21,29.45,42.38.24-.54.68-1.08.68-1.63.05-96.88.12-193.77.06-290.65M177.99,775.14c-.56-10.22-1.51-19.73-1.54-29.25-.32-89.49-.61-178.99-.64-268.48-.02-44.43,22.23-75.14,61.55-93.13,65.98-30.19,132.43-59.37,198.83-88.64,102.52-45.19,205.18-90.07,307.75-135.17,3.83-1.69,7.27-4.28,11.47-6.8-10.08-7.55-19.74-6.3-28.87-2.95-24.08,8.84-48.16,17.79-71.81,27.71-44.1,18.48-88.09,37.26-131.78,56.67-73.92,32.85-147.57,66.33-221.36,99.48-35.7,16.04-71.53,31.8-107.19,47.94-20.98,9.5-38.24,23.37-44.48,46.49-3.05,11.3-3.84,23.5-3.85,35.29-.03,58.91.56,117.83.87,176.74.16,31.21-.89,62.47.71,93.6.96,18.63,11.45,32.89,30.36,40.48ZM918.65,393.64c-.3-6.54-.14-12.7-.93-18.74-2.4-18.54-16.38-28.2-32.53-21.25-40.6,17.45-80.78,35.89-121.26,53.65-22.65,9.94-37.19,38.94-33.56,64.76,3.01,21.37,18.94,35.79,37.7,32.38,7.17-1.3,14.37-3.56,20.97-6.64,34.49-16.08,68.82-32.51,103.12-48.97,3.69-1.77,7.31-4.1,10.25-6.92,13.87-13.34,15.9-30.76,16.23-48.27ZM381.97,193.32c-4.29,1.35-8.61,2.35-12.64,4.02-24.01,9.96-48.04,19.88-71.91,30.18-48.29,20.83-140.94,59.21-189.05,80.45-2.55,1.13-5.27,5.13-5.41,7.93-.59,12-.25,24.05-.25,35.8,21.31-10.95,85.85-39.66,106.75-49.22,50.8-23.24,102.01-45.58,152.98-68.45,15.98-7.17,22.97-21.75,19.54-40.7ZM652.22,75.87c-16.98,6.94-34.39,13.23-51.09,21.03-59.58,27.8-119.4,54.92-182.81,73.15-2.6.75-6.08,4.29-6.22,6.71-.66,11.31-.29,22.68-.29,34.57,40.73-17.77,80.12-34.86,119.43-52.14,36.93-16.24,73.75-32.73,110.69-48.96,5.99-2.63,9.06-6.65,9.21-13.22.16-6.97.7-13.94,1.08-21.14ZM87.87,295.21l110.14-51.33c3.68-1.94,6.68-3.79,9.88-5.19,84.71-37.04,169.47-73.98,254.16-111.07,40.59-17.78,81.02-35.95,121.65-53.64,6.64-2.89,8.8-6.68,6.63-13.45-.77-2.39-.74-5.04-1.26-8.98-5.47,2.38-10.2,4.33-14.84,6.46-53.95,24.68-107.81,49.55-161.84,74.04-67.16,30.44-237.08,107.72-304.4,137.78l-20.11,25.38Z"/>
  <path class="cls-1" d="M595.37,530.89c0,45.4,0,90.8,0,136.2,0,3.54.34,7.15-.21,10.61-1.13,7.16-6.25,9.94-12.91,10.74-6.96.83-11.76-2.19-12.39-9-.97-10.52-1.09-21.15-1.12-31.73-.1-43.12-.2-86.24.04-129.36.24-43.43.78-86.87,1.55-130.3.07-4.09,1.5-9.53,4.34-11.93,9.45-7.98,17.82-4.25,18.64,8.03.83,12.51,1.07,25.08,1.12,37.63.14,36.37.05,72.75.05,109.12h.89Z"/>
  <path class="cls-1" d="M778.64,470.05c-10.31-.17-15.57-4.67-16.89-15.76-1.2-10.11,5.51-16.59,12.22-22.68,5.77-5.23,12.49-6.17,19.7-3.41,12.08,4.62,15.92,15.68,8.47,26.25-5.68,8.06-11.59,16.58-23.51,15.6Z"/>
  <path class="cls-1" d="M865.95,392.77c10.3.17,18.86,9.02,18.66,19.3-.18,9.01-14.35,21.49-24.14,21.26-10.12-.24-18.25-8.05-18.03-17.29.3-12.35,11.53-23.46,23.51-23.26Z"/>
  <path class="cls-1" d="M843.03,243.81l-88.95-92.07-40.15-41.54-20.27-20.98c17.84-7.79,30.51-7.5,38.66.57l1.01,1.01c7.24,7.16,14.47,14.31,21.71,21.46,29.65,29.32,59.25,58.68,88.51,88.38,8.98,9.12,8.3,24.42-.52,43.17Z"/>
  <path class="cls-1" d="M243.02,181.22v27.71c-28.9,12.83-57.79,25.68-86.53,38.85-12.52,5.74-24.9,12.13-36.4,19.67-19.49,12.77-30.8,31.59-30.89,54.89-.31,75.89-.14,151.78.1,227.67.06,18.53.12,37.04.17,55.56h-26.76c-.15-3.01-.25-6.03-.27-9.02-.33-89.49-.62-178.98-.64-268.47-.02-44.44,22.22-75.16,61.53-93.14,39.76-18.18,79.7-36.01,119.69-53.71Z"/>
  <path class="cls-1" d="M420.76,477.39c0,8.99-1.64,17.76-4.92,26.3-3.28,8.54-7.94,16.16-13.98,22.87-6.04,6.71-12.92,11.96-20.64,15.76-7.72,3.8-14.57,5.36-20.55,4.69-5.98-.67-10.64-3.54-13.98-8.61-3.34-5.07-5.1-11.91-5.26-20.53v-5.19c0-9.04,1.63-17.81,4.88-26.31,3.26-8.51,7.93-16.13,14.01-22.88,6.08-6.75,13-12.03,20.77-15.85s14.53-5.29,20.55-4.53c6.02.76,10.7,3.74,14.04,8.96,3.34,5.22,5.04,12.25,5.08,21.1v4.24ZM398.53,484.45c0-9.16-1.51-15.38-4.52-18.65-3.01-3.27-7.32-3.53-12.92-.77-10.96,5.39-16.75,16.6-17.37,33.62l-.06,6.81c0,9.04,1.48,15.26,4.42,18.66,2.95,3.41,7.33,3.68,13.14.82s9.78-7.19,12.76-13.43c2.99-6.24,4.5-13.85,4.54-22.82v-4.24Z"/>
  <path class="cls-1" d="M379.57,621.34l-10.45,5.14v28.82s-19.31,9.5-19.31,9.5v-81.48s31.51-15.5,31.51-15.5c9.5-4.67,16.93-6.18,22.28-4.53,5.36,1.65,8.03,6.39,8.04,14.22,0,5.67-1.13,10.92-3.38,15.75-2.26,4.84-5.79,9.59-10.59,14.26l16.73,24.67v.84s-20.69,10.17-20.69,10.17l-14.14-21.87ZM369.11,611.37l12.21-6.01c3.67-1.8,6.43-4.14,8.28-7.02,1.85-2.87,2.78-6.07,2.78-9.59s-.94-5.81-2.81-6.89c-1.87-1.08-4.62-.73-8.25,1.06l-12.21,6.01v22.44Z"/>
  <path class="cls-1" d="M415.4,728.01c-2.97,4.82-7.32,9.66-13.04,14.53-5.72,4.86-11.99,8.98-18.82,12.33-10.49,5.16-18.87,6.02-25.14,2.57-6.27-3.44-9.63-10.88-10.07-22.3l-.06-7.02c0-8.02,1.39-15.71,4.18-23.07,2.79-7.36,6.77-13.93,11.96-19.71,5.19-5.78,11.2-10.35,18.02-13.7,9.98-4.91,17.72-6.39,23.25-4.46,5.52,1.93,8.74,7.28,9.66,16.04l-18.6,9.15c-.66-4.23-2.09-6.77-4.29-7.63-2.2-.86-5.32-.29-9.35,1.69-4.84,2.38-8.58,6.31-11.22,11.79-2.64,5.48-3.98,12.11-4.01,19.88v4.92c0,8.13,1.37,13.57,4.1,16.31,2.73,2.74,7.03,2.67,12.9-.22,5.02-2.47,8.77-5.45,11.22-8.93v-12.65s-13.43,6.6-13.43,6.6v-13.49s32.73-16.1,32.73-16.1v33.47Z"/>
</svg>